# xmcd
#
# Track frame offsets:
#	150
#	12990
#	27365
#	37243
#	49218
#	53405
#	63608
#	72680
#	84028
#	97280
#	102795
#	106588
#	114020
#	130310
#	137970
#	148798
#	159298
#	167478
#	175475
#	187410
#	190168
#
# Disc length: 2691 seconds
#
# Revision: 0
# Processed by: cddbd v1.4PL0 Copyright (c) Steve Scherf et al.
# Submitted via: EasyCDDAExtractor 4.6.9.1
#
DISCID=2c0a8115
DTITLE=Nitty Gritty Dirt Band - Uncle Charlie and His Dog Teddy
DYEAR=1976
DGENRE=Country Rock
TTITLE0=Some Of Shelly's Blues
TTITLE1=Prodigal Son's Return
TTITLE2=The Cure
TTITLE3=Travelin' Mood
TTITLE4=Chicken Road
TTITLE5=Yukon Railroad
TTITLE6=Livin' Without You
TTITLE7=Clinch Mountain Backstep
TTITLE8=Rave On
TTITLE9=Billy In The Low Ground
TTITLE10=Jesse James
TTITLE11=Uncle Charlie Interview
TTITLE12=Mr. Bojangles
TTITLE13=Opus 36
TTITLE14=Santa Rosa
TTITLE15=Propinquity
TTITLE16=Uncle Charlie
TTITLE17=Randy Lynn Rag
TTITLE18=House At Pooh Corner
TTITLE19=Swannee River
TTITLE20=Uncle Charlie Interview #2/Spanish Fandango
EXTD=
EXTT0=
EXTT1=
EXTT2=
EXTT3=
EXTT4=
EXTT5=
EXTT6=
EXTT7=
EXTT8=
EXTT9=
EXTT10=
EXTT11=
EXTT12=
EXTT13=
EXTT14=
EXTT15=
EXTT16=
EXTT17=
EXTT18=
EXTT19=
EXTT20=
PLAYORDER=
